<?xml version="1.0" encoding="UTF-8" standalone="no"?>
<svg width="512" height="512" viewBox="0 0 512 512" fill="none" xmlns="http://www.w3.org/2000/svg">
  <defs>
    <linearGradient id="bg" x1="0" y1="0" x2="1" y2="1">
      <stop offset="0%" stop-color="#4DA3FF"/>
      <stop offset="100%" stop-color="#6EE7B7"/>
    </linearGradient>
  </defs>
  <rect x="32" y="32" width="448" height="448" rx="96" fill="url(#bg)"/>
  <!-- house + book fusion -->
  <path d="M128 280 L256 192 L384 280 V384 C384 396 374 406 362 406 H150 C138 406 128 396 128 384 V280 Z" fill="#FFF7E6"/>
  <path d="M160 280 V368 C160 380 170 390 182 390 H250 C262 390 272 380 272 368 V280 Z" fill="#FFFFFF"/>
  <!-- door -->
  <rect x="232" y="312" width="48" height="72" rx="8" fill="#FFC83D"/>
  <!-- dunzi silhouette -->
  <circle cx="256" cy="250" r="18" fill="#FFC83D"/>
  <path d="M236 266 C248 276 264 276 276 266 C286 280 292 298 292 316 H220 C220 298 226 280 236 266 Z" fill="#FFC83D"/>
  <!-- stars -->
  <circle cx="120" cy="160" r="6" fill="#FFF9F0"/>
  <circle cx="392" cy="144" r="5" fill="#FFF9F0"/>
  <circle cx="352" cy="196" r="4" fill="#FFF9F0"/>
</svg>
