<?xml version="1.0" encoding="UTF-8" standalone="no"?>
<svg width="512" height="512" viewBox="0 0 512 512" fill="none" xmlns="http://www.w3.org/2000/svg">
  <defs>
    <linearGradient id="bg2" x1="0" y1="0" x2="1" y2="1">
      <stop offset="0%" stop-color="#4DA3FF"/>
      <stop offset="100%" stop-color="#FFC83D"/>
    </linearGradient>
  </defs>
  <rect x="32" y="32" width="448" height="448" rx="96" fill="url(#bg2)"/>
  <!-- open book -->
  <path d="M128 340 C160 300 200 296 256 320 C312 296 352 300 384 340 V380 C352 348 312 348 256 372 C200 348 160 348 128 380 Z" fill="#FFFFFF"/>
  <!-- stars and heart -->
  <circle cx="176" cy="220" r="8" fill="#FFF9F0"/>
  <circle cx="336" cy="200" r="6" fill="#FFF9F0"/>
  <path d="M248 220 C248 210 256 206 260 212 C264 206 272 210 272 220 C272 240 260 242 260 242 C260 242 248 240 248 220 Z" fill="#FF86B3"/>
  <!-- Z-smile -->
  <path d="M216 256 L296 256 L232 288 L296 288" stroke="#FFC83D" stroke-width="10" stroke-linecap="round" stroke-linejoin="round"/>
</svg>
