<?xml version="1.0" encoding="UTF-8" standalone="no"?>
<svg width="512" height="512" viewBox="0 0 512 512" fill="none" xmlns="http://www.w3.org/2000/svg">
  <defs>
    <linearGradient id="bg3" x1="0" y1="0" x2="1" y2="1">
      <stop offset="0%" stop-color="#4DA3FF"/>
      <stop offset="100%" stop-color="#FFC83D"/>
    </linearGradient>
  </defs>
  <rect x="32" y="32" width="448" height="448" rx="96" fill="url(#bg3)"/>
  <!-- hot-air balloon book house -->
  <g transform="translate(0,-8)">
    <path d="M256 120 C200 120 160 160 160 208 C160 252 196 292 248 298 L248 324 L264 324 L264 298 C316 292 352 252 352 208 C352 160 312 120 256 120 Z" fill="#FFF7E6"/>
    <!-- small house roof on balloon -->
    <path d="M224 196 L256 172 L288 196 V220 H224 Z" fill="#FFFFFF"/>
    <!-- basket as a book -->
    <path d="M208 340 C228 328 248 328 256 332 C264 328 284 328 304 340 V380 C284 368 264 368 256 372 C248 368 228 368 208 380 Z" fill="#FFFFFF"/>
    <!-- dunzi flag -->
    <path d="M256 160 L256 140 L300 140 L292 156 Z" fill="#FFC83D"/>
  </g>
  <!-- sparkles -->
  <circle cx="120" cy="160" r="6" fill="#FFF9F0"/>
  <circle cx="396" cy="150" r="5" fill="#FFF9F0"/>
  <circle cx="356" cy="210" r="4" fill="#FFF9F0"/>
</svg>
